<svg width="98" height="26" viewBox="0 0 98 26" fill="none" xmlns="http://www.w3.org/2000/svg">
<path d="M11.6325 0.748299H15.2727V20.8163H11.6325V19.1156C10.3825 20.4762 8.83154 21.1565 6.97947 21.1565C4.99055 21.1565 3.33007 20.4444 1.99804 19.0204C0.666015 17.5964 0 15.8277 0 13.7143C0 11.6009 0.666015 9.8322 1.99804 8.40816C3.33007 6.98413 4.99055 6.27211 6.97947 6.27211C8.84066 6.27211 10.3917 6.94785 11.6325 8.29932V0.748299ZM7.67742 17.6463C8.80873 17.6463 9.74845 17.2698 10.4966 16.517C11.2538 15.7642 11.6325 14.8299 11.6325 13.7143C11.6325 12.5986 11.2538 11.6644 10.4966 10.9116C9.74845 10.1587 8.80873 9.78231 7.67742 9.78231C6.55523 9.78231 5.62007 10.1587 4.87195 10.9116C4.12382 11.6644 3.74976 12.5986 3.74976 13.7143C3.74976 14.8299 4.12382 15.7642 4.87195 16.517C5.62007 17.2698 6.55523 17.6463 7.67742 17.6463Z" fill="white"/>
<path d="M22.1838 3.86395C21.7458 4.29932 21.203 4.51701 20.5552 4.51701C19.9075 4.51701 19.3601 4.29932 18.913 3.86395C18.4751 3.42857 18.2561 2.89342 18.2561 2.2585C18.2561 1.62358 18.4751 1.08844 18.913 0.653061C19.3601 0.217687 19.9075 0 20.5552 0C21.203 0 21.7458 0.217687 22.1838 0.653061C22.6308 1.08844 22.8543 1.62358 22.8543 2.2585C22.8543 2.89342 22.6308 3.42857 22.1838 3.86395ZM18.7351 20.8163V6.61225H22.3754V20.8163H18.7351Z" fill="white"/>
<path d="M34.9384 20.8163C36.3617 20.8163 37.5432 21.1837 38.4829 21.9184C39.4317 22.6621 40.0248 23.6871 40.262 24.9932L36.4985 26C36.4438 25.483 36.2111 25.0703 35.8006 24.7619C35.39 24.4535 34.8654 24.2993 34.2268 24.2993H29.5464C28.2144 24.2993 27.1424 23.9501 26.3304 23.2517C25.5275 22.5533 25.1261 21.6372 25.1261 20.5034C25.1261 19.7778 25.2994 19.093 25.6461 18.449C26.002 17.805 26.4718 17.3016 27.0557 16.9388C25.7876 15.7596 25.1535 14.2857 25.1535 12.517C25.1535 10.7302 25.7876 9.24263 27.0557 8.05442C28.333 6.86621 29.9296 6.27211 31.8456 6.27211C32.9495 6.27211 33.9896 6.49433 34.9658 6.93878C35.1756 6.1678 35.6044 5.56463 36.2522 5.12925C36.9091 4.68481 37.7028 4.46258 38.6334 4.46258H39.8104V7.80952H38.7977C38.4327 7.80952 38.1134 7.90023 37.8397 8.08163C37.5751 8.26304 37.4109 8.51247 37.347 8.82993C38.1681 9.89116 38.5787 11.1202 38.5787 12.517C38.5787 14.2948 37.9355 15.7778 36.6491 16.966C35.3627 18.1542 33.7615 18.7483 31.8456 18.7483C31.0609 18.7483 30.2763 18.6304 29.4917 18.3946C29.0081 18.6848 28.7664 19.093 28.7664 19.619C28.7664 19.9637 28.9078 20.2494 29.1906 20.4762C29.4734 20.7029 29.8384 20.8163 30.2854 20.8163H34.9384ZM31.8456 9.70068C30.9879 9.70068 30.2763 9.96825 29.7107 10.5034C29.1541 11.0385 28.8759 11.7098 28.8759 12.517C28.8759 13.3243 29.1541 13.9955 29.7107 14.5306C30.2763 15.0658 30.9879 15.3333 31.8456 15.3333C32.694 15.3333 33.4011 15.0658 33.9668 14.5306C34.5324 13.9955 34.8153 13.3243 34.8153 12.517C34.8153 11.7098 34.5324 11.0385 33.9668 10.5034C33.4011 9.96825 32.694 9.70068 31.8456 9.70068Z" fill="white"/>
<path d="M45.1202 3.86395C44.6823 4.29932 44.1395 4.51701 43.4917 4.51701C42.8439 4.51701 42.2965 4.29932 41.8495 3.86395C41.4115 3.42857 41.1926 2.89342 41.1926 2.2585C41.1926 1.62358 41.4115 1.08844 41.8495 0.653061C42.2965 0.217687 42.8439 0 43.4917 0C44.1395 0 44.6823 0.217687 45.1202 0.653061C45.5673 1.08844 45.7908 1.62358 45.7908 2.2585C45.7908 2.89342 45.5673 3.42857 45.1202 3.86395ZM41.6716 20.8163V6.61225H45.3118V20.8163H41.6716Z" fill="white"/>
<path d="M57.5875 9.91837H53.7419V15.8231C53.7419 17.0385 54.3988 17.6463 55.7126 17.6463C56.2691 17.6463 56.8941 17.4875 57.5875 17.1701V20.5442C56.8302 20.9524 55.9407 21.1565 54.9189 21.1565C53.3223 21.1565 52.118 20.7347 51.306 19.8912C50.5031 19.0385 50.1017 17.8776 50.1017 16.4082V9.91837H47.8299V6.61225H50.1017V3.0068H53.7419V6.61225H57.5875V9.91837Z" fill="white"/>
<path d="M70.6706 6.61225H74.3109V20.8163H70.6706V19.1156C69.4207 20.4762 67.8697 21.1565 66.0176 21.1565C64.0287 21.1565 62.3682 20.4444 61.0362 19.0204C59.7041 17.5964 59.0381 15.8277 59.0381 13.7143C59.0381 11.6009 59.7041 9.8322 61.0362 8.40816C62.3682 6.98413 64.0287 6.27211 66.0176 6.27211C67.8788 6.27211 69.4298 6.94785 70.6706 8.29932V6.61225ZM66.7155 17.6463C67.8469 17.6463 68.7866 17.2698 69.5347 16.517C70.2919 15.7642 70.6706 14.8299 70.6706 13.7143C70.6706 12.5986 70.2919 11.6644 69.5347 10.9116C68.7866 10.1587 67.8469 9.78231 66.7155 9.78231C65.5934 9.78231 64.6582 10.1587 63.9101 10.9116C63.1619 11.6644 62.7879 12.5986 62.7879 13.7143C62.7879 14.8299 63.1619 15.7642 63.9101 16.517C64.6582 17.2698 65.5934 17.6463 66.7155 17.6463Z" fill="white"/>
<path d="M77.7732 20.8163V0.748299H81.4135V20.8163H77.7732Z" fill="white"/>
<path d="M91.3353 21.1565C89.319 21.1565 87.7041 20.6122 86.4907 19.5238C85.2773 18.4263 84.6706 16.9705 84.6706 15.1565V6.61225H88.3109V14.6531C88.3109 15.5601 88.5846 16.2857 89.132 16.8299C89.6885 17.3741 90.4229 17.6463 91.3353 17.6463C92.2476 17.6463 92.9775 17.3741 93.5249 16.8299C94.0815 16.2857 94.3597 15.5601 94.3597 14.6531V6.61225H98V15.1565C98 16.9615 97.3887 18.4127 96.1662 19.5102C94.9528 20.6077 93.3425 21.1565 91.3353 21.1565Z" fill="#6676FF"/>
</svg>
